<svg xmlns="http://www.w3.org/2000/svg" width="24" height="24" viewBox="0 0 24 24">
    <path fill="#FFF" fill-rule="evenodd" d="M20.88 13.2c0-.36.12-.72.12-1.2s0-.84-.12-1.2l2.52-2.04c.24-.24.24-.48.12-.72l-2.4-4.2c-.12-.12-.36-.24-.72-.12l-3 1.2c-.6-.48-1.32-.84-2.04-1.2L14.88.6c.12-.36-.24-.6-.48-.6H9.6c-.24 0-.6.24-.6.48l-.48 3.24c-.72.24-1.32.72-2.04 1.2L3.6 3.72c-.36-.12-.6 0-.84.24l-2.4 4.2c-.12.12 0 .48.24.72l2.52 1.92c0 .36-.12.72-.12 1.2s0 .84.12 1.2L.6 15.24c-.24.24-.24.48-.12.72l2.4 4.2c.12.12.36.24.72.12l3-1.2c.6.48 1.32.84 2.04 1.2l.48 3.12c0 .24.24.48.6.48h4.8c.24 0 .6-.24.6-.48l.48-3.12c.72-.36 1.44-.72 2.04-1.2l3 1.2c.24.12.6 0 .72-.24l2.4-4.2c.12-.24.12-.6-.12-.72l-2.76-1.92zm-8.88 3c-2.28 0-4.2-1.92-4.2-4.2 0-2.28 1.92-4.2 4.2-4.2 2.28 0 4.2 1.92 4.2 4.2 0 2.28-1.92 4.2-4.2 4.2z"/>
</svg>
